<svg width="20" height="19" viewBox="0 0 20 19" fill="none" xmlns="http://www.w3.org/2000/svg">
<path d="M8.92318 0.720423C9.21285 -0.22068 10.545 -0.22068 10.8347 0.720423L12.3548 5.65908C12.4839 6.07862 12.8715 6.3649 13.3105 6.3649L18.34 6.3649C19.2956 6.3649 19.7068 7.57685 18.9486 8.15839L14.7881 11.3494C14.4565 11.6037 14.318 12.0375 14.441 12.437L16.0079 17.5278C16.2944 18.4588 15.2164 19.2083 14.4435 18.6155L10.4875 15.5813C10.1285 15.306 9.62936 15.306 9.27035 15.5813L5.31433 18.6155C4.54146 19.2083 3.46346 18.4588 3.75 17.5278L5.31691 12.437C5.43987 12.0375 5.3014 11.6037 4.96974 11.3494L0.809274 8.15839C0.0510429 7.57685 0.462292 6.3649 1.41786 6.3649L6.44735 6.3649C6.88632 6.3649 7.27397 6.07862 7.4031 5.65908L8.92318 0.720423Z" fill="#070707"/>
</svg>
